<svg width="84" height="47" viewBox="0 0 84 47" fill="none" xmlns="http://www.w3.org/2000/svg">
<path d="M0 0H84V39C84 43.4183 80.4183 47 76 47H8C3.58172 47 0 43.4183 0 39V0Z" fill="#660BC2"/>
<path d="M12.088 26.464H21.952V24.16H12.088V26.464ZM26.1991 16.456V26.56H28.7911C29.2471 25.264 30.3271 24.376 31.9351 24.376C34.2151 24.376 35.3431 25.672 35.3431 27.952C35.3431 30.112 34.2871 31.72 31.9351 31.72C30.0871 31.72 28.8391 30.76 28.4791 29.272H25.8151C26.2231 32.008 28.3111 34 31.9111 34C35.9671 34 37.9591 31.36 37.9591 27.88C37.9591 25.24 36.6391 22.048 32.3431 22.048C30.7831 22.048 29.3671 22.768 28.7191 23.632V18.856H36.7591V16.456H26.1991ZM40.8072 25.024C40.8072 30.112 42.1512 33.952 47.0472 33.952C51.9432 33.952 53.2872 30.112 53.2872 25.024C53.2872 20.032 51.9432 16.192 47.0472 16.192C42.1512 16.192 40.8072 20.032 40.8072 25.024ZM50.5992 25.024C50.5992 28.456 50.2392 31.456 47.0472 31.456C43.8552 31.456 43.4952 28.456 43.4952 25.024C43.4952 21.76 43.8552 18.688 47.0472 18.688C50.2392 18.688 50.5992 21.76 50.5992 25.024ZM55.7502 20.728C55.7502 23.128 57.3102 24.496 59.3982 24.496C61.4862 24.496 63.0462 23.128 63.0462 20.728C63.0462 18.352 61.4862 16.984 59.3982 16.984C57.3102 16.984 55.7502 18.352 55.7502 20.728ZM59.3982 18.64C60.3102 18.64 60.9102 19.24 60.9102 20.728C60.9102 22.216 60.3102 22.84 59.3982 22.84C58.4622 22.84 57.8862 22.216 57.8862 20.728C57.8862 19.24 58.4622 18.64 59.3982 18.64ZM58.1262 34H60.8142L70.3902 17.296H67.7022L58.1262 34ZM65.5182 30.544C65.5182 32.944 67.0782 34.312 69.1662 34.312C71.2302 34.312 72.7902 32.944 72.7902 30.544C72.7902 28.144 71.2302 26.8 69.1662 26.8C67.0782 26.8 65.5182 28.144 65.5182 30.544ZM69.1422 28.456C70.0542 28.456 70.6542 29.056 70.6542 30.544C70.6542 32.032 70.0542 32.632 69.1422 32.632C68.2302 32.632 67.6302 32.032 67.6302 30.544C67.6302 29.056 68.2302 28.456 69.1422 28.456Z" fill="white"/>
</svg>
