<svg width="28" height="28" viewBox="0 0 28 28" fill="none" xmlns="http://www.w3.org/2000/svg">
<path d="M14 14V21.6364M18.3333 17.8182H9.66667M7.5 9.22728V7.31818C7.5 5.79922 8.18482 4.34246 9.40381 3.26839C10.6228 2.19432 12.2761 1.59091 14 1.59091V1.59091C15.7239 1.59091 17.3772 2.19432 18.5962 3.26839C19.8152 4.34246 20.5 5.79922 20.5 7.31818V9.22728M2.08333 9.22728C1.79602 9.22728 1.52047 9.32784 1.3173 9.50686C1.11414 9.68587 1 9.92866 1 10.1818V23.0682C1 24.8723 2.74417 26.4091 4.79167 26.4091H23.2083C25.2558 26.4091 27 24.9468 27 23.1428V10.1818C27 9.92866 26.8859 9.68587 26.6827 9.50686C26.4795 9.32784 26.204 9.22728 25.9167 9.22728H2.08333Z" stroke="black" stroke-width="2" stroke-linecap="round" stroke-linejoin="round"/>
</svg>
